<svg version="1.1" xmlns="http://www.w3.org/2000/svg" viewBox="0 0 742.5111196319019 236.05377983868613" width="742.5111196319019" height="236.05377983868613" filter="invert(93%) hue-rotate(180deg)">
  <!-- svg-source:excalidraw -->
  
  <defs>
    <style>
      @font-face {
        font-family: "Virgil";
        src: url("https://excalidraw.com/Virgil.woff2");
      }
      @font-face {
        font-family: "Cascadia";
        src: url("https://excalidraw.com/Cascadia.woff2");
      }
    </style>
  </defs>
  <g transform="translate(13.32361963190192 37.13046695525048) rotate(0 112.5 62.46165644171765)"><path d="M1.7157928947584629 0.1360388857629299 C44.04096897652274 0.4242708149626552, 88.58206069720303 0.5354062715742886, 225.41805016908862 -0.7439359240896701 M0.7484778484486341 0.32564646401894093 C79.7072132311762 0.3913172659188211, 158.07203547218012 -0.7431606648406088, 225.10384663798035 0.2857019490844011 M224.65393264219165 -1.0174287669360638 C224.59016523307812 37.07024189237029, 226.23532364315045 70.38946849039735, 226.42302603647113 123.8131193812774 M224.30689739622176 -0.7557869795709848 C223.878911011151 48.28537624299322, 224.4919006156241 98.93558449424395, 225.84526806510985 124.85808380095526 M224.20714334100174 126.43149437886318 C172.72709469865626 125.24732721251706, 119.51321264835178 126.94147798797636, -1.6266429583985804 126.32420402555354 M224.33251569258772 125.52046978590795 C179.06510156330484 125.5173170844128, 132.1427336907358 126.1627335840733, -0.6475998130465745 125.78102531223317 M1.3274095766246319 124.31098613104089 C-0.5156598416445628 90.62255686780625, -0.8805035678027049 57.1463964339173, 0.07430906221270561 -1.0272579304873943 M-0.8606268223375082 125.60597182957693 C1.2622195408876653 79.9570418728851, 0.2993386314447636 35.55765987456729, -0.36627394519746304 -0.40960862673819065" stroke="#495057" stroke-width="1" fill="none"></path></g><g transform="translate(17.53527607361957 41.58138720065034) rotate(0 107.32361963190192 12.423312883435585)"><path d="M0.6804760085588399 -0.250860377700433 C52.52244430642293 -0.44364861134604894, 101.02526135566127 -3.214655117976892, 215.35078556595747 -0.337014850801093 M-0.20830713405088902 -0.2628391324298655 C62.04175746068864 0.2638973571516115, 124.8645696254046 0.7358105963690532, 215.29652663673625 0.20567764370799424 M214.36705581814155 -0.7351055629551411 C214.17347066447815 7.532728752121332, 214.93753962562164 11.700415819883352, 213.68697266250953 23.817514690724813 M214.08454570330784 0.219141298905015 C214.79889096560234 7.845335117055599, 213.821055131576 13.911525654566535, 213.94284728326008 25.14133294035276 M213.30604580025124 26.504225687789102 C152.66216934431557 24.137772053962024, 94.57912480674784 25.23304502691122, 0.6701432082303505 23.139230278668215 M215.26299928451428 24.68833029199276 C144.62961185039725 23.073840938555293, 72.77328311287053 22.608895244676887, 0.4855806914934129 25.571477544796863 M0.6386362202465534 24.455613288251364 C1.5327867599478437 17.11598131777091, 0.12289789638430615 8.371270459351, -1.9461329095065594 -1.7816747911274433 M-0.7843047026544809 25.674323932422006 C-0.41765310675294315 16.31344753090133, -0.7833025088945142 7.632924294053506, 0.41446242295205593 0.5156183186918497" stroke="#495057" stroke-width="1" fill="none"></path></g><g transform="translate(46.88803680981471 45.41267554420688) rotate(0 76 8)"><text x="0" y="13" font-family="Cascadia, Segoe UI Emoji" font-size="12.973712821309308px" fill="#495057" text-anchor="start" style="white-space: pre;" direction="ltr">app.financialcpp.com</text></g><g transform="translate(20.225460122701634 70.94948536015733) rotate(0 23.811349693251543 43.48159509202449)"><path d="M1.307284664362669 -0.06196654960513115 C19.351614729772702 1.2742722230874848, 37.31276532130578 -0.7502635520971466, 49.49119933235224 -1.6391139142215252 M0.5947214309126139 -0.20180841721594334 C10.821556474576399 0.370208157285008, 20.402755913381785 1.0359422695477338, 47.045460523169 0.10282800160348415 M47.258377867813664 1.8359713442623615 C48.46977910919662 21.94574444701584, 50.12082359714981 46.21566235567752, 49.44747324573572 86.62214920397814 M47.858213723700004 0.512570833787322 C48.533232567291925 32.665599288356, 47.794798908215235 66.82763615051745, 47.29739272693868 86.08542635206099 M46.86019011127527 87.8779656636339 C37.02485101595463 88.41813174801, 24.981088306132037 86.55362252311834, -0.9163589961826801 85.39808544989641 M47.667015434305625 86.14313366178389 C35.17491295506628 87.0819027206268, 24.000187566281046 87.45845607727429, -0.016632741317152977 86.08413406375762 M-1.8063459880650043 88.83600029822405 C-1.6374995547940987 68.89466378452144, -0.5894747811963815 51.99262246735204, -1.6684972532093525 -0.030909668654203415 M0.0011680666357278824 87.34693475726958 C-0.023962288360723116 61.153232432816075, 1.0070704527090706 34.222322695642845, 0.057340020313858986 -0.13987942971289158" stroke="#495057" stroke-width="1" fill="none"></path></g><g transform="translate(76.82055214724176 70.94948536015733) rotate(0 54.52453987730058 43.48159509202449)"><path d="M1.2412075884640217 -1.6684972532093525 C24.05269597967273 0.25106553514802266, 47.61124323928964 -0.8424158863226194, 109.05141588787258 0.7674891464412212 M-0.9161596540361643 0.057340020313858986 C29.677344277643922 -0.9545333651922909, 59.44733708566678 -0.8372751144789425, 109.03498960959435 -0.14538962207734585 M109.25816008190334 0.516479205340147 C108.68345702632371 24.05719007147713, 111.61896611197892 49.21430642467466, 107.39708479980648 87.51472729172524 M109.59574867712975 0.25555937923491 C108.68460007229284 21.92172227583343, 109.06861497679189 45.523121149604805, 109.69975872265816 87.88765726525303 M110.80936488250912 85.68659943070229 C67.65723898258922 88.08882903736473, 21.94382234170253 86.44872438591362, 1.5622843392193317 87.99052864041145 M108.51639242398262 87.61305389840122 C83.24129530345796 88.89273918106672, 58.990221238963564 87.76103121473905, 0.024178778752684593 86.09701935488697 M-1.9497825019061565 85.01204067196663 C-0.6924209347069026 69.06466560072022, 0.9768451699912786 52.22563937590936, -1.492399226874113 0.396919559687376 M-0.83055897988379 87.0506722136211 C1.299899950117855 61.54427091516203, 0.1899001146266745 37.94002453918832, -0.4546869043260813 -0.1915587242692709" stroke="#495057" stroke-width="1" fill="none"></path></g><g transform="translate(190.01073619632393 72.6396694092387) rotate(0 22.085889570552183 43.136503067484625)"><path d="M1.9009536020457745 0.9313243515789509 C12.711199336279588 1.3519315705663217, 24.230257784136448 1.2793916449910654, 45.320440944558506 -0.9460854642093182 M-0.6726864632219076 0.7517338152974844 C13.109136720090847 -0.7595841676065347, 24.982140704795203 -0.6555413395234964, 45.072997251799826 0.6994213815778494 M42.30759018314493 1.7348103411495686 C45.22261653120486 21.94361406568425, 42.24148938829867 47.84869540862714, 44.256420668488865 88.00417451311377 M44.02381197576833 -0.5230379346758127 C43.96386556666881 30.35187618095894, 43.615492332396805 63.209919797936465, 43.55504725342107 86.00805577572909 M42.709420737153415 84.77048901964453 C28.349267480952093 84.8484454340318, 12.010182797748815 88.01210393374951, 0.43551917001605034 85.21886197973517 M43.840075234225516 86.59371718701449 C31.27206585093468 86.17255161310672, 19.539499964347943 85.52745274807452, -0.31378001533448696 85.79788592394915 M1.6561278812587261 85.2219623749378 C1.8462697665444199 65.66553713034753, 0.5297010342827622 44.247039894790476, -1.643553901463747 0.009622443467378616 M-0.2282301839441061 85.37379696902362 C-0.5538522514637463 57.47874542725971, -1.094673148089265 29.53935756652608, -0.9657441433519125 0.5644562598317862" stroke="#495057" stroke-width="1" fill="none"></path></g><g transform="translate(270 39.7071540718149) rotate(0 109.74744679239569 26.423312883435557)"><path d="M1.5603658677756655 -1.1249412843779085 C59.905657549156224 -1.890768950351433, 123.11537102771621 -0.9687558287077677, 218.09863983664488 1.154517246476143 M-0.6348554460639105 -0.5118877930282094 C57.24034567378014 0.69524335319551, 114.95896167938814 1.1966428201850856, 220.26158422761014 0.4960405145995808 M221.41261222252604 -1.8036379106342793 C219.81389516771154 18.062332970166757, 218.76621562421636 34.54165758021584, 221.191814802978 52.93074885305538 M220.0538615085369 -0.05935288034379482 C220.17138444425268 17.936121721414867, 219.65603296996755 35.12324099175263, 219.32110054271277 53.68269159008338 M220.85968421138452 52.76057274283381 C159.12749916605165 52.16466283278194, 98.17669265340659 52.40176313102897, -0.05332154549932078 53.642679923835196 M219.28302979629956 53.55784656443106 C148.03328544502602 53.21137153348677, 76.61329571235737 53.505586972723876, -0.3577301286435867 52.91070180064235 M-1.4971485249698162 51.99017694887294 C-1.1331294139860877 39.97154465807952, 1.3310242334367028 25.831646955909147, -0.3152588717639446 -1.8609989173710346 M0.8599741216748953 52.65745313574149 C0.20447927820010625 37.407841367544165, -0.7388468970127539 22.992574463238448, -0.777804696932435 0.5894743744283915" stroke="#5c940d" stroke-width="1" fill="none"></path></g><g transform="translate(426.1860940695286 66.84683747710005) rotate(0 24.5 8.5)"><text x="0" y="14" font-family="Cascadia, Segoe UI Emoji" font-size="14.018016618777635px" fill="#495057" text-anchor="start" style="white-space: pre;" direction="ltr">nodejs</text></g><g transform="translate(10 167.7071540718149) rotate(0 114.32361963190192 11.423312883435557)"><path d="M0.3920054405385805 -0.3044302995982208 C76.45048281052614 -1.927723030271208, 152.93787166469866 -1.1556758364605486, 227.8983728653283 -0.5635846737798285 M0.018939221052974728 0.6301735782047575 C90.23265793179328 2.246011948890742, 180.30867002551702 2.3510089876145477, 229.06897683143006 -0.251455856197256 M227.59236006409034 -0.07384936884045601 C228.0808180596882 6.577810068318798, 227.46950173640786 10.865040031601099, 229.26658980518684 23.516608867017148 M227.66946342744038 -0.21739709936082363 C228.59175218685013 7.990882009964846, 228.39441295011383 15.944150514432117, 228.66027042426273 21.873772279513595 M229.99989310789726 22.746467312757403 C173.08650803988616 24.691936984952093, 118.67621142083576 23.23022963208783, -1.390632314141299 23.67578653441184 M229.26549646220906 23.532448089014213 C152.6847593049362 21.652176870053008, 77.49089489762386 21.252150491506573, 0.41529077359730404 23.3162454025858 M1.0064651854336262 21.927591833440182 C1.1099574844415758 16.239659934851968, 0.5060798208292101 8.0620544217618, 1.070198405534029 -0.45276646688580513 M-0.12056388892233372 23.107143596900222 C-0.5747277891599327 16.353298131026783, 0.7591867888010353 8.307454755607441, 0.09291080199182034 0.8973229471594095" stroke="#42b983" stroke-width="1" fill="none"></path></g><g transform="translate(98.35276073619525 171.5384424153715) rotate(0 19 8)"><text x="0" y="13" font-family="Cascadia, Segoe UI Emoji" font-size="12.973712821309308px" fill="#495057" text-anchor="start" style="white-space: pre;" direction="ltr">vuejs</text></g><g transform="translate(11 201.207154071815) rotate(0 113.32361963190192 12.423312883435557)"><path d="M0.4479128212195353 -0.4716265829694566 C83.79648515260138 -1.8011825945063333, 169.03360509211137 -1.347759216640668, 227.72560772892626 -1.6699898466744805 M-0.549353272538497 -0.6553395475185922 C49.3789665211747 -0.9003658387584936, 99.52956197772102 -0.10881165072557455, 226.33436235331345 -0.5647943643616631 M225.87188677460063 0.9599936716258526 C226.4033900324337 9.236766383703202, 225.01030491032523 15.179383059403598, 227.66956011921275 25.296637210217824 M227.01409796036887 0.6361418906599283 C225.91100752859342 5.997925274851114, 227.14288276939618 11.4411238354339, 226.30817338980842 25.797822133792152 M227.04635023944388 23.15777736552951 C175.4124037100991 28.105735756307688, 127.16109880830378 26.325021997127045, -0.3635551662594913 24.888718533486553 M226.19644298769177 24.73145905067731 C171.39948359650097 22.92562204221803, 116.51054508662234 23.19263171026062, -0.2484614402093739 24.581838620177475 M-1.22444511577487 23.656442198125234 C0.8124735003360113 17.548750702257394, 1.9483114128955206 8.6691590293876, 0.5271848328411579 -0.26093392446637154 M0.22098836861550808 24.176167206061592 C0.0709162170661655 17.652733079380546, 0.338928085066196 8.829976824403605, 0.25237992964684963 0.631583983078599" stroke="#e10098" stroke-width="1" fill="none"></path></g><g transform="translate(92.35276073619525 205.0384424153715) rotate(0 26.5 8)"><text x="0" y="13" font-family="Cascadia, Segoe UI Emoji" font-size="12.973712821309308px" fill="#495057" text-anchor="start" style="white-space: pre;" direction="ltr">graphql</text></g><g><g transform="translate(240.32361963190192 215.13046695525048) rotate(0 60.02950141013423 -102.3473940603912)"><path d="M0.14538823887705798 0.4356788344681264 C5.7446288041770455 -32.02299356982112, 12.261179236517261 -166.9261777691543, 32.45301861092448 -195.93863206431269 C52.6448579853317 -224.95108635947108, 106.71023925520028 -177.4953937582672, 121.29642448532039 -173.63904693648223 M-1.237421665051952 -0.381193722775206 C4.255898908218368 -32.613801391115416, 10.845099547541672 -165.6588443097379, 31.21780791803263 -194.89398864685558 C51.59051628852359 -224.12913298397325, 106.20365874445544 -179.15322792171503, 120.99882855789379 -175.79205974548125" stroke="#495057" stroke-width="1" fill="none"></path></g><g transform="translate(240.32361963190192 215.13046695525048) rotate(0 60.02950141013423 -102.3473940603912)"><path d="M91.93432098597954 -180.24174997158482 C95.70987876767029 -177.15558218669773, 103.97691532043815 -178.64148673832904, 122.99791000188903 -174.1316766513791 M90.2563895412601 -179.67051802337303 C101.03579253330386 -178.12210119296608, 111.09363588194806 -177.35930351287806, 120.65698768907801 -174.79263835198248" stroke="#495057" stroke-width="1" fill="none"></path></g><g transform="translate(240.32361963190192 215.13046695525048) rotate(0 60.02950141013423 -102.3473940603912)"><path d="M101.17822415924275 -198.56305605246166 C102.87948283929012 -191.71352299368874, 109.25338711150812 -189.44726189479013, 122.99791000188903 -174.1316766513791 M99.50029271452331 -197.99182410424987 C107.30541442427914 -190.53367163734066, 114.42723910271047 -183.951719893445, 120.65698768907801 -174.79263835198248" stroke="#495057" stroke-width="1" fill="none"></path></g></g><g><g transform="translate(84.32361963190192 77.13046695525048) rotate(0 -0.8165651219198367 33.11629932223353)"><path d="M-0.16782141253352156 -0.9074044056236743 C-0.17226738656560572 10.247649758309123, 0.029055606077114514 54.57649428173899, 0.08193613961338975 65.73939527794718 M-1.7150663834530862 1.2306043360847982 C-1.7923677826641748 12.671429684283213, -0.5818090696850171 56.107730567874384, -0.2980928507167846 67.14000305009074" stroke="#495057" stroke-width="1" fill="none"></path></g></g><g><g transform="translate(83.32361963190192 144.13046695525048) rotate(0 43.9488436754327 0.30305681315252286)"><path d="M0.027088708430528685 -0.40095534995198245 C14.496014367292327 -0.023809765527645743, 72.35646338736018 0.7775045963625113, 87.08430246785284 1.1644257239997386 M-1.4178284489829094 -1.657060854015872 C13.399261891969168 -1.052546089567865, 74.43998779677165 1.454271297675247, 89.31551579984836 2.263174480320886" stroke="#495057" stroke-width="1" fill="none"></path></g></g><g><g transform="translate(90.32361963190192 130.13046695525048) rotate(0 42.36074673917423 -23.10837447858883)"><path d="M-1.039853460341692 -1.1663841538131237 C-0.7251181033750376 -4.242634683102369, 0.6264772745470202 -15.215480340768895, 3.0705112867057323 -17.349679427593948 C5.514545298864444 -19.483878514419, 9.748470744738976 -16.235347371548414, 13.624350612610579 -13.97157867476344 C17.50023048048218 -11.707809977978467, 22.913694653163354 -4.11206381842494, 26.325790493935347 -3.7670672468841078 C29.73788633470734 -3.4220706753432752, 31.800754143049318 -7.696760866294304, 34.09692565724254 -11.901599245518446 C36.393097171435755 -16.106437624742586, 36.25622310762604 -29.121038450052342, 40.10281957909465 -28.996097522228958 C43.94941605056326 -28.871156594405573, 54.119644190122685 -13.421965254594882, 57.176504486054185 -11.151953678578138 C60.233364781985685 -8.881942102561394, 57.815195450435084 -14.43374538148443, 58.443981354683636 -15.376028066128493 C59.07276725893219 -16.318310750772557, 60.17669036512574 -15.412718348950149, 60.94921991154551 -16.80564978644252 C61.72174945796529 -18.19858122393489, 62.33924449409047 -22.22902575855454, 63.07915863320231 -23.733616691082716 C63.81907277231415 -25.238207623610894, 64.43094214722514 -24.124944628526766, 65.38870474621653 -25.833195381611585 C66.34646734520793 -27.541446134696404, 66.86450305109223 -34.93988739376267, 68.82573422715068 -33.98312120959163 C70.78696540320912 -33.02635502542059, 75.42894901558756 -22.102068572491408, 77.15609180256725 -20.092598276585342 C78.88323458954693 -18.083127980679276, 77.91460393394034 -18.453504766275486, 79.18859094902874 -21.926299434155226 C80.46257796411713 -25.399094102034965, 84.10476044937968 -36.74168132667741, 84.80001389309764 -40.929366283863786 C85.4952673368156 -45.11705124105016, 83.53401328846812 -45.87788568859299, 83.36011161133646 -47.05240917727351 M0.6150847436394544 0.835660220095888 C1.1970348742014418 -2.0762540888693186, 3.286758974731589 -16.797530731450145, 5.294484248599037 -19.130835875859486 C7.302209522466486 -21.464141020268826, 9.174062170029307 -15.841657181968912, 12.661436386844143 -13.164170646360144 C16.14881060365898 -10.486684110751376, 22.882835845292234 -2.827578565170988, 26.218729549488053 -3.065916662206873 C29.55462325368387 -3.304254759242758, 30.118413964550324 -10.099517191440487, 32.67679861201905 -14.594199228575453 C35.235183259487776 -19.08888126571042, 37.88565197620851 -30.370123105536525, 41.569037434300405 -30.034008885016664 C45.2524228923923 -29.697894664496804, 51.57423931304676 -14.930786586593214, 54.777111360570416 -12.57751390545629 C57.97998340809407 -10.224241224319364, 60.04067855888667 -15.51861731478634, 60.78626971944235 -15.914372798195108 C61.531860879998035 -16.310128281603877, 58.73359794859154 -13.596756871333346, 59.2506583239045 -14.952046805908903 C59.76771869921747 -16.307336740484462, 62.86573053473296 -22.411357905160013, 63.88863197132014 -24.046112405648454 C64.91153340790731 -25.680866906136895, 64.81589335425757 -23.035229966233796, 65.38806694342755 -24.760573808839546 C65.96024053259752 -26.485917651445295, 65.83096659515363 -35.1181520055638, 67.32167350634 -34.39817546128295 C68.81238041752638 -33.678198917002106, 72.36787276311777 -22.49385154186748, 74.3323084105458 -20.440714543154463 C76.29674405797384 -18.38757754444145, 77.23888918155494 -19.10031716157061, 79.10828739090823 -22.079353469004854 C80.97768560026152 -25.058389776439096, 84.72362715824507 -34.356777685473986, 85.54869766666553 -38.31493238775991 C86.373768175086 -42.273087090045834, 84.58767781867645 -44.2573480020867, 84.05871044143103 -45.82828168272041" stroke="#5c940d" stroke-width="1" fill="none"></path></g></g><g transform="translate(270.07617283950617 100.2071540718149) rotate(0 110.74744679239569 14.423312883435557)"><path d="M0.48316832589507225 1.4376079500290873 C48.29152016493265 -0.9183408991379973, 96.80250842564234 0.8101211820783495, 221.98876313584466 -0.4913392630992698 M0.1921093814185601 -0.7062631983218565 C87.86894373129148 -1.3645320509261933, 175.62165427028955 -1.7613065951279516, 222.15234267393353 0.8158431223792995 M223.48954942116498 0.03187758848071098 C220.38304868644224 11.272952802614089, 222.77328113025175 21.132752839745514, 221.504362963531 29.943006905881305 M220.4995199538952 0.3194630090147257 C222.1956076987741 7.904025708692009, 221.62939105114913 15.868953780073394, 221.77822596805154 29.58409811664893 M220.4657368462245 28.464846607240315 C145.00672527657562 29.19359168205964, 65.12981909262938 27.843961068364383, 1.6120443082797353 29.1903842338117 M220.99726547608628 29.37935400432035 C174.3393019666168 29.601633847685648, 127.19001314282374 30.918749707470518, -0.07711032097873298 29.39663119677366 M-1.2446436993777752 28.650613102284808 C-1.6372388251626329 22.53849976091339, 1.6154127470648452 17.029242101915013, 1.224614728242159 1.3775469772517681 M0.8494405504316092 28.191435651076574 C-0.41897118646560133 20.152216420363757, 0.9506069962316948 13.026687756667538, 0.8144373055547476 -0.2968235667794943" stroke="#5c940d" stroke-width="1" fill="none"></path></g><g transform="translate(287.2622669090347 107.34683747710005) rotate(0 94.5 8.5)"><text x="0" y="14" font-family="Cascadia, Segoe UI Emoji" font-size="14.018016618777635px" fill="#495057" text-anchor="start" style="white-space: pre;" direction="ltr">C++ Node Addon Bindings</text></g><g transform="translate(275.57617283950617 198.7071540718149) rotate(0 110.74744679239569 12.423312883435557)"><path d="M-1.6058294059934106 -1.0671265615239818 C67.80314153089492 0.2319047770284861, 137.37356961417888 -2.0012332676243556, 222.0572465768601 0.7773473037418054 M-0.35069322810182707 0.31342609121930126 C48.9653223265093 -0.024823077496735624, 97.7518956394653 -0.37280954937496324, 220.77162046453418 0.12248414957347455 M221.30040667990207 -0.07738591358065605 C221.98982498922456 7.174596432333604, 221.52598605432618 16.49639155290607, 221.00422678926944 23.869739125636954 M220.90676304550826 0.35073826275765896 C222.0072081577846 8.93606265419464, 222.45377968669618 15.720092718849394, 220.59627011271178 25.39300501082613 M223.0147904651334 25.767101197373375 C150.3337831789573 27.384381505717236, 75.4646242819113 25.989117013565647, -0.3113202848231648 26.33780446482901 M221.895629383313 23.985029810309687 C144.89577699191523 23.794076761801026, 69.10331939704027 24.837989408958105, 0.4848502961821329 24.516575551807104 M0.9107603542506695 24.159685800937552 C0.8419400879633296 17.471111573107457, -0.3938638737905156 13.825250510560561, 1.0564978830516338 -1.7906872145831585 M-0.8092474397271872 25.663462695819874 C-0.6094686277382119 14.396504065490358, 0.7613544575698631 5.785160288066116, -0.5383919533342123 -0.7179793957620859" stroke="#495057" stroke-width="1" fill="none"></path></g><g transform="translate(304.8236196319019 202.63046695525048) rotate(0 84.5 9.5)"><text x="84.5" y="15" font-family="Cascadia, Segoe UI Emoji" font-size="16px" fill="#495057" text-anchor="middle" style="white-space: pre;" direction="ltr">financialcpp (c++)</text></g><g><g transform="translate(373.80884019598386 134.13046695525048) rotate(0 1.1333138956525204 33.358670732052985)"><path d="M0.11047443822026248 -0.08839266970753679 C0.6630502803957332 11.010443537682296, 3.058084011989767 55.325135534256695, 3.557293002358597 66.75266818329692 M-1.2906652110535652 -1.180402766643092 C-0.8824954303486032 10.043440197827294, 2.217523800329426 56.593158477963875, 2.8179038261668348 67.89774423074908" stroke="#495057" stroke-width="1" fill="none"></path></g><g transform="translate(373.80884019598386 134.13046695525048) rotate(0 1.1333138956525204 33.358670732052985)"><path d="M-9.27231836213403 41.039841475195644 C-6.510379040811386 49.08695114529132, 0.18673690822353528 59.4352893048364, 3.186155377109494 67.76835978385992 M-9.686916542115142 39.971095606915114 C-7.335127703545151 45.69523171180885, -3.5187976000376677 51.9079042990112, 2.8440338821755313 67.22167782654054" stroke="#495057" stroke-width="1" fill="none"></path></g><g transform="translate(373.80884019598386 134.13046695525048) rotate(0 1.1333138956525204 33.358670732052985)"><path d="M11.211499921600716 39.801620612516516 C7.41712739985676 48.26400842691327, 7.556284146463714 59.00876691144691, 3.186155377109494 67.76835978385992 M10.796901741619603 38.732874744235986 C8.547421680053738 44.680278342298934, 7.77193089135238 51.170520684693535, 2.8440338821755313 67.22167782654054" stroke="#495057" stroke-width="1" fill="none"></path></g></g><g transform="translate(268 43.7071540718149) rotate(0 66.82361963190192 11.423312883435543)"><path d="M0.5388084165751934 0.8210765011608601 C30.37011080822439 2.273728914403649, 63.10480599162163 0.734247155332299, 132.05540657758826 0.6444036848843098 M0.4250254575163126 0.4038597699254751 C27.513050167390013 -0.810240793648388, 52.983637514592814 -0.9849951152235528, 133.46882783405596 -0.09812536276876926 M133.20973110914343 1.0438663847744465 C134.1941958090697 6.439526785416451, 132.1830622574721 12.473603476341658, 135.09197986841315 21.920350860027177 M134.5435744427901 0.9954248424619436 C133.8112065995208 7.336875175513257, 133.23522182350075 12.582963798969844, 134.4427563451987 23.25166177485655 M135.55395210504645 21.78218538608919 C98.72547112869435 22.47463156808896, 68.87826380346529 20.765586515560578, 0.557588767260313 22.214010189441545 M133.38394277326876 23.261731145126326 C99.69718592502021 23.450710458105135, 66.12944190941326 22.678914052789736, 0.10145586170256138 22.22252601121138 M-0.6835334785282612 24.002083729175432 C-0.7074488938471846 17.293028834096432, -1.4216998160502485 8.648415619925636, -1.652824331074953 0.5167146809399128 M-0.9683592971414328 23.174993452770217 C0.8572901719223494 17.57453364860374, 0.2609768741737837 11.984058814530034, -0.5715692099183798 -0.21733197011053562" stroke="#e10098" stroke-width="1" fill="none"></path></g><g transform="translate(288.35276073619525 47.53844241537138) rotate(0 53 8)"><text x="0" y="13" font-family="Cascadia, Segoe UI Emoji" font-size="12.973712821309308px" fill="#495057" text-anchor="start" style="white-space: pre;" direction="ltr">graphql-server</text></g><g transform="translate(531.3236196319019 29.130466955250483) rotate(0 28.5 7)"><path d="M28.5 0 C34.301158177421016 -0.08937185169721411, 42.14161004925838 0.6736117721119058, 46.81944687606637 1.6376888981671538 C51.49728370287436 2.601766024222402, 55.50664143888291 4.307410906026013, 56.56702096084793 5.784462756331488 C57.627400482812945 7.261514606636962, 56.23496515386756 9.201102401805022, 53.1817240078565 10.5 C50.12848286184544 11.798897598194978, 43.98579043355457 13.064873621251133, 38.24757408478156 13.577848345501359 C32.50935773600855 14.090823069751584, 24.490642263991454 14.090823069751584, 18.752425915218442 13.577848345501359 C13.01420956644543 13.064873621251133, 6.871517138154559 11.798897598194978, 3.818275992143498 10.5 C0.7650348461324366 9.201102401805022, -0.6274004828129478 7.261514606636961, 0.43297903915207314 5.784462756331487 C1.493358561117094 4.307410906026012, 5.5027162971256365 2.6017660242224023, 10.180553123933624 1.6376888981671547 C14.85838995074161 0.6736117721119069, 25.446758853988932 0.24961481636119234, 28.499999999999996 0 C31.55324114601106 -0.24961481636119234, 28.5 0.023333333333333872, 28.5 0.14000000000000057 M28.5 0 C34.301158177421016 -0.08937185169721411, 42.14161004925838 0.6736117721119058, 46.81944687606637 1.6376888981671538 C51.49728370287436 2.601766024222402, 55.50664143888291 4.307410906026013, 56.56702096084793 5.784462756331488 C57.627400482812945 7.261514606636962, 56.23496515386756 9.201102401805022, 53.1817240078565 10.5 C50.12848286184544 11.798897598194978, 43.98579043355457 13.064873621251133, 38.24757408478156 13.577848345501359 C32.50935773600855 14.090823069751584, 24.490642263991454 14.090823069751584, 18.752425915218442 13.577848345501359 C13.01420956644543 13.064873621251133, 6.871517138154559 11.798897598194978, 3.818275992143498 10.5 C0.7650348461324366 9.201102401805022, -0.6274004828129478 7.261514606636961, 0.43297903915207314 5.784462756331487 C1.493358561117094 4.307410906026012, 5.5027162971256365 2.6017660242224023, 10.180553123933624 1.6376888981671547 C14.85838995074161 0.6736117721119069, 25.446758853988932 0.24961481636119234, 28.499999999999996 0 C31.55324114601106 -0.24961481636119234, 28.5 0.023333333333333872, 28.5 0.14000000000000057" stroke="#495057" stroke-width="1" fill="none"></path></g><g transform="translate(530.8236196319019 42.13046695525048) rotate(0 28.5 7)"><path d="M28.5 0 C34.301158177421016 -0.08937185169721411, 42.14161004925838 0.6736117721119058, 46.81944687606637 1.6376888981671538 C51.49728370287436 2.601766024222402, 55.50664143888291 4.307410906026013, 56.56702096084793 5.784462756331488 C57.627400482812945 7.261514606636962, 56.23496515386756 9.201102401805022, 53.1817240078565 10.5 C50.12848286184544 11.798897598194978, 43.98579043355457 13.064873621251133, 38.24757408478156 13.577848345501359 C32.50935773600855 14.090823069751584, 24.490642263991454 14.090823069751584, 18.752425915218442 13.577848345501359 C13.01420956644543 13.064873621251133, 6.871517138154559 11.798897598194978, 3.818275992143498 10.5 C0.7650348461324366 9.201102401805022, -0.6274004828129478 7.261514606636961, 0.43297903915207314 5.784462756331487 C1.493358561117094 4.307410906026012, 5.5027162971256365 2.6017660242224023, 10.180553123933624 1.6376888981671547 C14.85838995074161 0.6736117721119069, 25.446758853988932 0.24961481636119234, 28.499999999999996 0 C31.55324114601106 -0.24961481636119234, 28.5 0.023333333333333872, 28.5 0.14000000000000057 M28.5 0 C34.301158177421016 -0.08937185169721411, 42.14161004925838 0.6736117721119058, 46.81944687606637 1.6376888981671538 C51.49728370287436 2.601766024222402, 55.50664143888291 4.307410906026013, 56.56702096084793 5.784462756331488 C57.627400482812945 7.261514606636962, 56.23496515386756 9.201102401805022, 53.1817240078565 10.5 C50.12848286184544 11.798897598194978, 43.98579043355457 13.064873621251133, 38.24757408478156 13.577848345501359 C32.50935773600855 14.090823069751584, 24.490642263991454 14.090823069751584, 18.752425915218442 13.577848345501359 C13.01420956644543 13.064873621251133, 6.871517138154559 11.798897598194978, 3.818275992143498 10.5 C0.7650348461324366 9.201102401805022, -0.6274004828129478 7.261514606636961, 0.43297903915207314 5.784462756331487 C1.493358561117094 4.307410906026012, 5.5027162971256365 2.6017660242224023, 10.180553123933624 1.6376888981671547 C14.85838995074161 0.6736117721119069, 25.446758853988932 0.24961481636119234, 28.499999999999996 0 C31.55324114601106 -0.24961481636119234, 28.5 0.023333333333333872, 28.5 0.14000000000000057" stroke="#495057" stroke-width="1" fill="none"></path></g><g transform="translate(530.8236196319019 36.13046695525048) rotate(0 28.5 7)"><path d="M28.5 0 C34.301158177421016 -0.08937185169721411, 42.14161004925838 0.6736117721119058, 46.81944687606637 1.6376888981671538 C51.49728370287436 2.601766024222402, 55.50664143888291 4.307410906026013, 56.56702096084793 5.784462756331488 C57.627400482812945 7.261514606636962, 56.23496515386756 9.201102401805022, 53.1817240078565 10.5 C50.12848286184544 11.798897598194978, 43.98579043355457 13.064873621251133, 38.24757408478156 13.577848345501359 C32.50935773600855 14.090823069751584, 24.490642263991454 14.090823069751584, 18.752425915218442 13.577848345501359 C13.01420956644543 13.064873621251133, 6.871517138154559 11.798897598194978, 3.818275992143498 10.5 C0.7650348461324366 9.201102401805022, -0.6274004828129478 7.261514606636961, 0.43297903915207314 5.784462756331487 C1.493358561117094 4.307410906026012, 5.5027162971256365 2.6017660242224023, 10.180553123933624 1.6376888981671547 C14.85838995074161 0.6736117721119069, 25.446758853988932 0.24961481636119234, 28.499999999999996 0 C31.55324114601106 -0.24961481636119234, 28.5 0.023333333333333872, 28.5 0.14000000000000057 M28.5 0 C34.301158177421016 -0.08937185169721411, 42.14161004925838 0.6736117721119058, 46.81944687606637 1.6376888981671538 C51.49728370287436 2.601766024222402, 55.50664143888291 4.307410906026013, 56.56702096084793 5.784462756331488 C57.627400482812945 7.261514606636962, 56.23496515386756 9.201102401805022, 53.1817240078565 10.5 C50.12848286184544 11.798897598194978, 43.98579043355457 13.064873621251133, 38.24757408478156 13.577848345501359 C32.50935773600855 14.090823069751584, 24.490642263991454 14.090823069751584, 18.752425915218442 13.577848345501359 C13.01420956644543 13.064873621251133, 6.871517138154559 11.798897598194978, 3.818275992143498 10.5 C0.7650348461324366 9.201102401805022, -0.6274004828129478 7.261514606636961, 0.43297903915207314 5.784462756331487 C1.493358561117094 4.307410906026012, 5.5027162971256365 2.6017660242224023, 10.180553123933624 1.6376888981671547 C14.85838995074161 0.6736117721119069, 25.446758853988932 0.24961481636119234, 28.499999999999996 0 C31.55324114601106 -0.24961481636119234, 28.5 0.023333333333333872, 28.5 0.14000000000000057" stroke="#495057" stroke-width="1" fill="none"></path></g><g transform="translate(531.0736196319019 11.630466955250483) rotate(0 28.5 7)"><path d="M28.5 0 C34.301158177421016 -0.08937185169721411, 42.14161004925838 0.6736117721119058, 46.81944687606637 1.6376888981671538 C51.49728370287436 2.601766024222402, 55.50664143888291 4.307410906026013, 56.56702096084793 5.784462756331488 C57.627400482812945 7.261514606636962, 56.23496515386756 9.201102401805022, 53.1817240078565 10.5 C50.12848286184544 11.798897598194978, 43.98579043355457 13.064873621251133, 38.24757408478156 13.577848345501359 C32.50935773600855 14.090823069751584, 24.490642263991454 14.090823069751584, 18.752425915218442 13.577848345501359 C13.01420956644543 13.064873621251133, 6.871517138154559 11.798897598194978, 3.818275992143498 10.5 C0.7650348461324366 9.201102401805022, -0.6274004828129478 7.261514606636961, 0.43297903915207314 5.784462756331487 C1.493358561117094 4.307410906026012, 5.5027162971256365 2.6017660242224023, 10.180553123933624 1.6376888981671547 C14.85838995074161 0.6736117721119069, 25.446758853988932 0.24961481636119234, 28.499999999999996 0 C31.55324114601106 -0.24961481636119234, 28.5 0.023333333333333872, 28.5 0.14000000000000057 M28.5 0 C34.301158177421016 -0.08937185169721411, 42.14161004925838 0.6736117721119058, 46.81944687606637 1.6376888981671538 C51.49728370287436 2.601766024222402, 55.50664143888291 4.307410906026013, 56.56702096084793 5.784462756331488 C57.627400482812945 7.261514606636962, 56.23496515386756 9.201102401805022, 53.1817240078565 10.5 C50.12848286184544 11.798897598194978, 43.98579043355457 13.064873621251133, 38.24757408478156 13.577848345501359 C32.50935773600855 14.090823069751584, 24.490642263991454 14.090823069751584, 18.752425915218442 13.577848345501359 C13.01420956644543 13.064873621251133, 6.871517138154559 11.798897598194978, 3.818275992143498 10.5 C0.7650348461324366 9.201102401805022, -0.6274004828129478 7.261514606636961, 0.43297903915207314 5.784462756331487 C1.493358561117094 4.307410906026012, 5.5027162971256365 2.6017660242224023, 10.180553123933624 1.6376888981671547 C14.85838995074161 0.6736117721119069, 25.446758853988932 0.24961481636119234, 28.499999999999996 0 C31.55324114601106 -0.24961481636119234, 28.5 0.023333333333333872, 28.5 0.14000000000000057" stroke="#495057" stroke-width="1" fill="none"></path></g><g transform="translate(530.5736196319019 24.630466955250483) rotate(0 28.5 7)"><path d="M28.5 0 C34.301158177421016 -0.08937185169721411, 42.14161004925838 0.6736117721119058, 46.81944687606637 1.6376888981671538 C51.49728370287436 2.601766024222402, 55.50664143888291 4.307410906026013, 56.56702096084793 5.784462756331488 C57.627400482812945 7.261514606636962, 56.23496515386756 9.201102401805022, 53.1817240078565 10.5 C50.12848286184544 11.798897598194978, 43.98579043355457 13.064873621251133, 38.24757408478156 13.577848345501359 C32.50935773600855 14.090823069751584, 24.490642263991454 14.090823069751584, 18.752425915218442 13.577848345501359 C13.01420956644543 13.064873621251133, 6.871517138154559 11.798897598194978, 3.818275992143498 10.5 C0.7650348461324366 9.201102401805022, -0.6274004828129478 7.261514606636961, 0.43297903915207314 5.784462756331487 C1.493358561117094 4.307410906026012, 5.5027162971256365 2.6017660242224023, 10.180553123933624 1.6376888981671547 C14.85838995074161 0.6736117721119069, 25.446758853988932 0.24961481636119234, 28.499999999999996 0 C31.55324114601106 -0.24961481636119234, 28.5 0.023333333333333872, 28.5 0.14000000000000057 M28.5 0 C34.301158177421016 -0.08937185169721411, 42.14161004925838 0.6736117721119058, 46.81944687606637 1.6376888981671538 C51.49728370287436 2.601766024222402, 55.50664143888291 4.307410906026013, 56.56702096084793 5.784462756331488 C57.627400482812945 7.261514606636962, 56.23496515386756 9.201102401805022, 53.1817240078565 10.5 C50.12848286184544 11.798897598194978, 43.98579043355457 13.064873621251133, 38.24757408478156 13.577848345501359 C32.50935773600855 14.090823069751584, 24.490642263991454 14.090823069751584, 18.752425915218442 13.577848345501359 C13.01420956644543 13.064873621251133, 6.871517138154559 11.798897598194978, 3.818275992143498 10.5 C0.7650348461324366 9.201102401805022, -0.6274004828129478 7.261514606636961, 0.43297903915207314 5.784462756331487 C1.493358561117094 4.307410906026012, 5.5027162971256365 2.6017660242224023, 10.180553123933624 1.6376888981671547 C14.85838995074161 0.6736117721119069, 25.446758853988932 0.24961481636119234, 28.499999999999996 0 C31.55324114601106 -0.24961481636119234, 28.5 0.023333333333333872, 28.5 0.14000000000000057" stroke="#495057" stroke-width="1" fill="none"></path></g><g transform="translate(530.5736196319019 18.630466955250483) rotate(0 28.5 7)"><path d="M28.5 0 C34.301158177421016 -0.08937185169721411, 42.14161004925838 0.6736117721119058, 46.81944687606637 1.6376888981671538 C51.49728370287436 2.601766024222402, 55.50664143888291 4.307410906026013, 56.56702096084793 5.784462756331488 C57.627400482812945 7.261514606636962, 56.23496515386756 9.201102401805022, 53.1817240078565 10.5 C50.12848286184544 11.798897598194978, 43.98579043355457 13.064873621251133, 38.24757408478156 13.577848345501359 C32.50935773600855 14.090823069751584, 24.490642263991454 14.090823069751584, 18.752425915218442 13.577848345501359 C13.01420956644543 13.064873621251133, 6.871517138154559 11.798897598194978, 3.818275992143498 10.5 C0.7650348461324366 9.201102401805022, -0.6274004828129478 7.261514606636961, 0.43297903915207314 5.784462756331487 C1.493358561117094 4.307410906026012, 5.5027162971256365 2.6017660242224023, 10.180553123933624 1.6376888981671547 C14.85838995074161 0.6736117721119069, 25.446758853988932 0.24961481636119234, 28.499999999999996 0 C31.55324114601106 -0.24961481636119234, 28.5 0.023333333333333872, 28.5 0.14000000000000057 M28.5 0 C34.301158177421016 -0.08937185169721411, 42.14161004925838 0.6736117721119058, 46.81944687606637 1.6376888981671538 C51.49728370287436 2.601766024222402, 55.50664143888291 4.307410906026013, 56.56702096084793 5.784462756331488 C57.627400482812945 7.261514606636962, 56.23496515386756 9.201102401805022, 53.1817240078565 10.5 C50.12848286184544 11.798897598194978, 43.98579043355457 13.064873621251133, 38.24757408478156 13.577848345501359 C32.50935773600855 14.090823069751584, 24.490642263991454 14.090823069751584, 18.752425915218442 13.577848345501359 C13.01420956644543 13.064873621251133, 6.871517138154559 11.798897598194978, 3.818275992143498 10.5 C0.7650348461324366 9.201102401805022, -0.6274004828129478 7.261514606636961, 0.43297903915207314 5.784462756331487 C1.493358561117094 4.307410906026012, 5.5027162971256365 2.6017660242224023, 10.180553123933624 1.6376888981671547 C14.85838995074161 0.6736117721119069, 25.446758853988932 0.24961481636119234, 28.499999999999996 0 C31.55324114601106 -0.24961481636119234, 28.5 0.023333333333333872, 28.5 0.14000000000000057" stroke="#495057" stroke-width="1" fill="none"></path></g><g transform="translate(503.3236196319019 56.63046695525048) rotate(0 98.5 9.5)"><text x="0" y="15" font-family="Cascadia, Segoe UI Emoji" font-size="16px" fill="#495057" text-anchor="start" style="white-space: pre;" direction="ltr">tick storage (fs, s3)</text></g><g><g transform="translate(501.3236196319019 174.13046695525048) rotate(0 21.00246897140056 -48.88219446614383)"><path d="M0.9011349387466907 1.084628241509199 C8.112607187777758 -15.438438779860737, 35.35803443863988 -82.21961241438986, 42.08984589055181 -98.8490171737969 M-0.08490794775076216 0.6084541229624301 C7.079565943209454 -15.722355336425826, 33.8723836499732 -80.9288321437221, 41.1889695194643 -97.23232593881897" stroke="#495057" stroke-width="1" fill="none"></path></g><g transform="translate(501.3236196319019 174.13046695525048) rotate(0 21.00246897140056 -48.88219446614383)"><path d="M41.3510025803725 -67.1277545440898 C40.05470735935254 -74.51326732336908, 40.64875323366641 -80.1983611725319, 42.34563376056962 -95.89274354401044 M40.30650924972992 -67.86531799211657 C39.05605767085612 -74.24520138515882, 39.65649108660432 -81.47877679216631, 40.891708316756414 -96.32784185121767" stroke="#495057" stroke-width="1" fill="none"></path></g><g transform="translate(501.3236196319019 174.13046695525048) rotate(0 21.00246897140056 -48.88219446614383)"><path d="M22.48142627371739 -75.19367621449793 C25.01153886853675 -81.09358125184029, 29.412541255565202 -85.15136707165559, 42.34563376056962 -95.89274354401044 M21.436932943074808 -75.9312396625247 C24.946891160757474 -80.43440250810906, 30.247528282902508 -85.65884563177069, 40.891708316756414 -96.32784185121767" stroke="#495057" stroke-width="1" fill="none"></path></g></g><g transform="translate(583.1986196319019 99.38046695525048) rotate(0 28.5 7)"><path d="M28.5 0 C34.301158177421016 -0.08937185169721411, 42.14161004925838 0.6736117721119058, 46.81944687606637 1.6376888981671538 C51.49728370287436 2.601766024222402, 55.50664143888291 4.307410906026013, 56.56702096084793 5.784462756331488 C57.627400482812945 7.261514606636962, 56.23496515386756 9.201102401805022, 53.1817240078565 10.5 C50.12848286184544 11.798897598194978, 43.98579043355457 13.064873621251133, 38.24757408478156 13.577848345501359 C32.50935773600855 14.090823069751584, 24.490642263991454 14.090823069751584, 18.752425915218442 13.577848345501359 C13.01420956644543 13.064873621251133, 6.871517138154559 11.798897598194978, 3.818275992143498 10.5 C0.7650348461324366 9.201102401805022, -0.6274004828129478 7.261514606636961, 0.43297903915207314 5.784462756331487 C1.493358561117094 4.307410906026012, 5.5027162971256365 2.6017660242224023, 10.180553123933624 1.6376888981671547 C14.85838995074161 0.6736117721119069, 25.446758853988932 0.24961481636119234, 28.499999999999996 0 C31.55324114601106 -0.24961481636119234, 28.5 0.023333333333333872, 28.5 0.14000000000000057 M28.5 0 C34.301158177421016 -0.08937185169721411, 42.14161004925838 0.6736117721119058, 46.81944687606637 1.6376888981671538 C51.49728370287436 2.601766024222402, 55.50664143888291 4.307410906026013, 56.56702096084793 5.784462756331488 C57.627400482812945 7.261514606636962, 56.23496515386756 9.201102401805022, 53.1817240078565 10.5 C50.12848286184544 11.798897598194978, 43.98579043355457 13.064873621251133, 38.24757408478156 13.577848345501359 C32.50935773600855 14.090823069751584, 24.490642263991454 14.090823069751584, 18.752425915218442 13.577848345501359 C13.01420956644543 13.064873621251133, 6.871517138154559 11.798897598194978, 3.818275992143498 10.5 C0.7650348461324366 9.201102401805022, -0.6274004828129478 7.261514606636961, 0.43297903915207314 5.784462756331487 C1.493358561117094 4.307410906026012, 5.5027162971256365 2.6017660242224023, 10.180553123933624 1.6376888981671547 C14.85838995074161 0.6736117721119069, 25.446758853988932 0.24961481636119234, 28.499999999999996 0 C31.55324114601106 -0.24961481636119234, 28.5 0.023333333333333872, 28.5 0.14000000000000057" stroke="#1864ab" stroke-width="1" fill="none"></path></g><g transform="translate(582.6986196319019 111.38046695525048) rotate(0 28.5 7)"><path d="M28.5 0 C34.301158177421016 -0.08937185169721411, 42.14161004925838 0.6736117721119058, 46.81944687606637 1.6376888981671538 C51.49728370287436 2.601766024222402, 55.50664143888291 4.307410906026013, 56.56702096084793 5.784462756331488 C57.627400482812945 7.261514606636962, 56.23496515386756 9.201102401805022, 53.1817240078565 10.5 C50.12848286184544 11.798897598194978, 43.98579043355457 13.064873621251133, 38.24757408478156 13.577848345501359 C32.50935773600855 14.090823069751584, 24.490642263991454 14.090823069751584, 18.752425915218442 13.577848345501359 C13.01420956644543 13.064873621251133, 6.871517138154559 11.798897598194978, 3.818275992143498 10.5 C0.7650348461324366 9.201102401805022, -0.6274004828129478 7.261514606636961, 0.43297903915207314 5.784462756331487 C1.493358561117094 4.307410906026012, 5.5027162971256365 2.6017660242224023, 10.180553123933624 1.6376888981671547 C14.85838995074161 0.6736117721119069, 25.446758853988932 0.24961481636119234, 28.499999999999996 0 C31.55324114601106 -0.24961481636119234, 28.5 0.023333333333333872, 28.5 0.14000000000000057 M28.5 0 C34.301158177421016 -0.08937185169721411, 42.14161004925838 0.6736117721119058, 46.81944687606637 1.6376888981671538 C51.49728370287436 2.601766024222402, 55.50664143888291 4.307410906026013, 56.56702096084793 5.784462756331488 C57.627400482812945 7.261514606636962, 56.23496515386756 9.201102401805022, 53.1817240078565 10.5 C50.12848286184544 11.798897598194978, 43.98579043355457 13.064873621251133, 38.24757408478156 13.577848345501359 C32.50935773600855 14.090823069751584, 24.490642263991454 14.090823069751584, 18.752425915218442 13.577848345501359 C13.01420956644543 13.064873621251133, 6.871517138154559 11.798897598194978, 3.818275992143498 10.5 C0.7650348461324366 9.201102401805022, -0.6274004828129478 7.261514606636961, 0.43297903915207314 5.784462756331487 C1.493358561117094 4.307410906026012, 5.5027162971256365 2.6017660242224023, 10.180553123933624 1.6376888981671547 C14.85838995074161 0.6736117721119069, 25.446758853988932 0.24961481636119234, 28.499999999999996 0 C31.55324114601106 -0.24961481636119234, 28.5 0.023333333333333872, 28.5 0.14000000000000057" stroke="#1864ab" stroke-width="1" fill="none"></path></g><g transform="translate(583.6986196319019 105.38046695525048) rotate(0 28.5 7)"><path d="M28.5 0 C34.301158177421016 -0.08937185169721411, 42.14161004925838 0.6736117721119058, 46.81944687606637 1.6376888981671538 C51.49728370287436 2.601766024222402, 55.50664143888291 4.307410906026013, 56.56702096084793 5.784462756331488 C57.627400482812945 7.261514606636962, 56.23496515386756 9.201102401805022, 53.1817240078565 10.5 C50.12848286184544 11.798897598194978, 43.98579043355457 13.064873621251133, 38.24757408478156 13.577848345501359 C32.50935773600855 14.090823069751584, 24.490642263991454 14.090823069751584, 18.752425915218442 13.577848345501359 C13.01420956644543 13.064873621251133, 6.871517138154559 11.798897598194978, 3.818275992143498 10.5 C0.7650348461324366 9.201102401805022, -0.6274004828129478 7.261514606636961, 0.43297903915207314 5.784462756331487 C1.493358561117094 4.307410906026012, 5.5027162971256365 2.6017660242224023, 10.180553123933624 1.6376888981671547 C14.85838995074161 0.6736117721119069, 25.446758853988932 0.24961481636119234, 28.499999999999996 0 C31.55324114601106 -0.24961481636119234, 28.5 0.023333333333333872, 28.5 0.14000000000000057 M28.5 0 C34.301158177421016 -0.08937185169721411, 42.14161004925838 0.6736117721119058, 46.81944687606637 1.6376888981671538 C51.49728370287436 2.601766024222402, 55.50664143888291 4.307410906026013, 56.56702096084793 5.784462756331488 C57.627400482812945 7.261514606636962, 56.23496515386756 9.201102401805022, 53.1817240078565 10.5 C50.12848286184544 11.798897598194978, 43.98579043355457 13.064873621251133, 38.24757408478156 13.577848345501359 C32.50935773600855 14.090823069751584, 24.490642263991454 14.090823069751584, 18.752425915218442 13.577848345501359 C13.01420956644543 13.064873621251133, 6.871517138154559 11.798897598194978, 3.818275992143498 10.5 C0.7650348461324366 9.201102401805022, -0.6274004828129478 7.261514606636961, 0.43297903915207314 5.784462756331487 C1.493358561117094 4.307410906026012, 5.5027162971256365 2.6017660242224023, 10.180553123933624 1.6376888981671547 C14.85838995074161 0.6736117721119069, 25.446758853988932 0.24961481636119234, 28.499999999999996 0 C31.55324114601106 -0.24961481636119234, 28.5 0.023333333333333872, 28.5 0.14000000000000057" stroke="#1864ab" stroke-width="1" fill="none"></path></g><g transform="translate(582.9486196319019 81.88046695525048) rotate(0 28.5 7)"><path d="M28.5 0 C34.301158177421016 -0.08937185169721411, 42.14161004925838 0.6736117721119058, 46.81944687606637 1.6376888981671538 C51.49728370287436 2.601766024222402, 55.50664143888291 4.307410906026013, 56.56702096084793 5.784462756331488 C57.627400482812945 7.261514606636962, 56.23496515386756 9.201102401805022, 53.1817240078565 10.5 C50.12848286184544 11.798897598194978, 43.98579043355457 13.064873621251133, 38.24757408478156 13.577848345501359 C32.50935773600855 14.090823069751584, 24.490642263991454 14.090823069751584, 18.752425915218442 13.577848345501359 C13.01420956644543 13.064873621251133, 6.871517138154559 11.798897598194978, 3.818275992143498 10.5 C0.7650348461324366 9.201102401805022, -0.6274004828129478 7.261514606636961, 0.43297903915207314 5.784462756331487 C1.493358561117094 4.307410906026012, 5.5027162971256365 2.6017660242224023, 10.180553123933624 1.6376888981671547 C14.85838995074161 0.6736117721119069, 25.446758853988932 0.24961481636119234, 28.499999999999996 0 C31.55324114601106 -0.24961481636119234, 28.5 0.023333333333333872, 28.5 0.14000000000000057 M28.5 0 C34.301158177421016 -0.08937185169721411, 42.14161004925838 0.6736117721119058, 46.81944687606637 1.6376888981671538 C51.49728370287436 2.601766024222402, 55.50664143888291 4.307410906026013, 56.56702096084793 5.784462756331488 C57.627400482812945 7.261514606636962, 56.23496515386756 9.201102401805022, 53.1817240078565 10.5 C50.12848286184544 11.798897598194978, 43.98579043355457 13.064873621251133, 38.24757408478156 13.577848345501359 C32.50935773600855 14.090823069751584, 24.490642263991454 14.090823069751584, 18.752425915218442 13.577848345501359 C13.01420956644543 13.064873621251133, 6.871517138154559 11.798897598194978, 3.818275992143498 10.5 C0.7650348461324366 9.201102401805022, -0.6274004828129478 7.261514606636961, 0.43297903915207314 5.784462756331487 C1.493358561117094 4.307410906026012, 5.5027162971256365 2.6017660242224023, 10.180553123933624 1.6376888981671547 C14.85838995074161 0.6736117721119069, 25.446758853988932 0.24961481636119234, 28.499999999999996 0 C31.55324114601106 -0.24961481636119234, 28.5 0.023333333333333872, 28.5 0.14000000000000057" stroke="#1864ab" stroke-width="1" fill="none"></path></g><g transform="translate(582.4486196319019 94.88046695525048) rotate(0 28.5 7)"><path d="M28.5 0 C34.301158177421016 -0.08937185169721411, 42.14161004925838 0.6736117721119058, 46.81944687606637 1.6376888981671538 C51.49728370287436 2.601766024222402, 55.50664143888291 4.307410906026013, 56.56702096084793 5.784462756331488 C57.627400482812945 7.261514606636962, 56.23496515386756 9.201102401805022, 53.1817240078565 10.5 C50.12848286184544 11.798897598194978, 43.98579043355457 13.064873621251133, 38.24757408478156 13.577848345501359 C32.50935773600855 14.090823069751584, 24.490642263991454 14.090823069751584, 18.752425915218442 13.577848345501359 C13.01420956644543 13.064873621251133, 6.871517138154559 11.798897598194978, 3.818275992143498 10.5 C0.7650348461324366 9.201102401805022, -0.6274004828129478 7.261514606636961, 0.43297903915207314 5.784462756331487 C1.493358561117094 4.307410906026012, 5.5027162971256365 2.6017660242224023, 10.180553123933624 1.6376888981671547 C14.85838995074161 0.6736117721119069, 25.446758853988932 0.24961481636119234, 28.499999999999996 0 C31.55324114601106 -0.24961481636119234, 28.5 0.023333333333333872, 28.5 0.14000000000000057 M28.5 0 C34.301158177421016 -0.08937185169721411, 42.14161004925838 0.6736117721119058, 46.81944687606637 1.6376888981671538 C51.49728370287436 2.601766024222402, 55.50664143888291 4.307410906026013, 56.56702096084793 5.784462756331488 C57.627400482812945 7.261514606636962, 56.23496515386756 9.201102401805022, 53.1817240078565 10.5 C50.12848286184544 11.798897598194978, 43.98579043355457 13.064873621251133, 38.24757408478156 13.577848345501359 C32.50935773600855 14.090823069751584, 24.490642263991454 14.090823069751584, 18.752425915218442 13.577848345501359 C13.01420956644543 13.064873621251133, 6.871517138154559 11.798897598194978, 3.818275992143498 10.5 C0.7650348461324366 9.201102401805022, -0.6274004828129478 7.261514606636961, 0.43297903915207314 5.784462756331487 C1.493358561117094 4.307410906026012, 5.5027162971256365 2.6017660242224023, 10.180553123933624 1.6376888981671547 C14.85838995074161 0.6736117721119069, 25.446758853988932 0.24961481636119234, 28.499999999999996 0 C31.55324114601106 -0.24961481636119234, 28.5 0.023333333333333872, 28.5 0.14000000000000057" stroke="#1864ab" stroke-width="1" fill="none"></path></g><g transform="translate(582.4486196319019 88.88046695525048) rotate(0 28.5 7)"><path d="M28.5 0 C34.301158177421016 -0.08937185169721411, 42.14161004925838 0.6736117721119058, 46.81944687606637 1.6376888981671538 C51.49728370287436 2.601766024222402, 55.50664143888291 4.307410906026013, 56.56702096084793 5.784462756331488 C57.627400482812945 7.261514606636962, 56.23496515386756 9.201102401805022, 53.1817240078565 10.5 C50.12848286184544 11.798897598194978, 43.98579043355457 13.064873621251133, 38.24757408478156 13.577848345501359 C32.50935773600855 14.090823069751584, 24.490642263991454 14.090823069751584, 18.752425915218442 13.577848345501359 C13.01420956644543 13.064873621251133, 6.871517138154559 11.798897598194978, 3.818275992143498 10.5 C0.7650348461324366 9.201102401805022, -0.6274004828129478 7.261514606636961, 0.43297903915207314 5.784462756331487 C1.493358561117094 4.307410906026012, 5.5027162971256365 2.6017660242224023, 10.180553123933624 1.6376888981671547 C14.85838995074161 0.6736117721119069, 25.446758853988932 0.24961481636119234, 28.499999999999996 0 C31.55324114601106 -0.24961481636119234, 28.5 0.023333333333333872, 28.5 0.14000000000000057 M28.5 0 C34.301158177421016 -0.08937185169721411, 42.14161004925838 0.6736117721119058, 46.81944687606637 1.6376888981671538 C51.49728370287436 2.601766024222402, 55.50664143888291 4.307410906026013, 56.56702096084793 5.784462756331488 C57.627400482812945 7.261514606636962, 56.23496515386756 9.201102401805022, 53.1817240078565 10.5 C50.12848286184544 11.798897598194978, 43.98579043355457 13.064873621251133, 38.24757408478156 13.577848345501359 C32.50935773600855 14.090823069751584, 24.490642263991454 14.090823069751584, 18.752425915218442 13.577848345501359 C13.01420956644543 13.064873621251133, 6.871517138154559 11.798897598194978, 3.818275992143498 10.5 C0.7650348461324366 9.201102401805022, -0.6274004828129478 7.261514606636961, 0.43297903915207314 5.784462756331487 C1.493358561117094 4.307410906026012, 5.5027162971256365 2.6017660242224023, 10.180553123933624 1.6376888981671547 C14.85838995074161 0.6736117721119069, 25.446758853988932 0.24961481636119234, 28.499999999999996 0 C31.55324114601106 -0.24961481636119234, 28.5 0.023333333333333872, 28.5 0.14000000000000057" stroke="#1864ab" stroke-width="1" fill="none"></path></g><g transform="translate(588.8236196319019 129.63046695525048) rotate(0 61 9.5)"><text x="0" y="15" font-family="Cascadia, Segoe UI Emoji" font-size="16px" fill="#495057" text-anchor="start" style="white-space: pre;" direction="ltr">data provider</text></g><g><g transform="translate(500.3236196319019 184.13046695525048) rotate(0 41.56962335631255 -23.9380473094387)"><path d="M-0.7359763450920582 0.8858460612595083 C13.183749144524333 -6.845044665783644, 69.70150815770029 -38.899719648808244, 83.87522305771708 -47.10778093859553 M1.0784973443951458 0.30531129808165147 C14.798057427247988 -7.689929312458261, 69.09118107154035 -40.83849567621015, 82.86166969939136 -48.7619406801369" stroke="#1864ab" stroke-width="1" fill="none"></path></g><g transform="translate(500.3236196319019 184.13046695525048) rotate(0 41.56962335631255 -23.9380473094387)"><path d="M65.35833156583314 -25.73696965674374 C71.7671891250154 -32.56288901187009, 75.9343211168301 -42.20737362973197, 84.20658802120947 -48.20962819798849 M63.52807127227491 -26.23160000654373 C69.54357749683645 -33.998222737541774, 76.16170448252483 -40.187306016891114, 82.30773154339754 -47.91066865778528" stroke="#1864ab" stroke-width="1" fill="none"></path></g><g transform="translate(500.3236196319019 184.13046695525048) rotate(0 41.56962335631255 -23.9380473094387)"><path d="M54.86490792574919 -43.37239034057112 C64.62768774860129 -44.31886300272999, 72.25491261192819 -48.14825852410881, 84.20658802120947 -48.20962819798849 M53.03464763219095 -43.86702069037111 C62.44576510149352 -45.723702146872476, 72.56650549309556 -46.0262356189554, 82.30773154339754 -47.91066865778528" stroke="#1864ab" stroke-width="1" fill="none"></path></g></g><g transform="translate(593.8861196319019 173.25546695525048) rotate(0 28.5 7)"><path d="M28.5 0 C34.301158177421016 -0.08937185169721411, 42.14161004925838 0.6736117721119058, 46.81944687606637 1.6376888981671538 C51.49728370287436 2.601766024222402, 55.50664143888291 4.307410906026013, 56.56702096084793 5.784462756331488 C57.627400482812945 7.261514606636962, 56.23496515386756 9.201102401805022, 53.1817240078565 10.5 C50.12848286184544 11.798897598194978, 43.98579043355457 13.064873621251133, 38.24757408478156 13.577848345501359 C32.50935773600855 14.090823069751584, 24.490642263991454 14.090823069751584, 18.752425915218442 13.577848345501359 C13.01420956644543 13.064873621251133, 6.871517138154559 11.798897598194978, 3.818275992143498 10.5 C0.7650348461324366 9.201102401805022, -0.6274004828129478 7.261514606636961, 0.43297903915207314 5.784462756331487 C1.493358561117094 4.307410906026012, 5.5027162971256365 2.6017660242224023, 10.180553123933624 1.6376888981671547 C14.85838995074161 0.6736117721119069, 25.446758853988932 0.24961481636119234, 28.499999999999996 0 C31.55324114601106 -0.24961481636119234, 28.5 0.023333333333333872, 28.5 0.14000000000000057 M28.5 0 C34.301158177421016 -0.08937185169721411, 42.14161004925838 0.6736117721119058, 46.81944687606637 1.6376888981671538 C51.49728370287436 2.601766024222402, 55.50664143888291 4.307410906026013, 56.56702096084793 5.784462756331488 C57.627400482812945 7.261514606636962, 56.23496515386756 9.201102401805022, 53.1817240078565 10.5 C50.12848286184544 11.798897598194978, 43.98579043355457 13.064873621251133, 38.24757408478156 13.577848345501359 C32.50935773600855 14.090823069751584, 24.490642263991454 14.090823069751584, 18.752425915218442 13.577848345501359 C13.01420956644543 13.064873621251133, 6.871517138154559 11.798897598194978, 3.818275992143498 10.5 C0.7650348461324366 9.201102401805022, -0.6274004828129478 7.261514606636961, 0.43297903915207314 5.784462756331487 C1.493358561117094 4.307410906026012, 5.5027162971256365 2.6017660242224023, 10.180553123933624 1.6376888981671547 C14.85838995074161 0.6736117721119069, 25.446758853988932 0.24961481636119234, 28.499999999999996 0 C31.55324114601106 -0.24961481636119234, 28.5 0.023333333333333872, 28.5 0.14000000000000057" stroke="#c92a2a" stroke-width="1" fill="none"></path></g><g transform="translate(593.3861196319019 185.25546695525048) rotate(0 28.5 7)"><path d="M28.5 0 C34.301158177421016 -0.08937185169721411, 42.14161004925838 0.6736117721119058, 46.81944687606637 1.6376888981671538 C51.49728370287436 2.601766024222402, 55.50664143888291 4.307410906026013, 56.56702096084793 5.784462756331488 C57.627400482812945 7.261514606636962, 56.23496515386756 9.201102401805022, 53.1817240078565 10.5 C50.12848286184544 11.798897598194978, 43.98579043355457 13.064873621251133, 38.24757408478156 13.577848345501359 C32.50935773600855 14.090823069751584, 24.490642263991454 14.090823069751584, 18.752425915218442 13.577848345501359 C13.01420956644543 13.064873621251133, 6.871517138154559 11.798897598194978, 3.818275992143498 10.5 C0.7650348461324366 9.201102401805022, -0.6274004828129478 7.261514606636961, 0.43297903915207314 5.784462756331487 C1.493358561117094 4.307410906026012, 5.5027162971256365 2.6017660242224023, 10.180553123933624 1.6376888981671547 C14.85838995074161 0.6736117721119069, 25.446758853988932 0.24961481636119234, 28.499999999999996 0 C31.55324114601106 -0.24961481636119234, 28.5 0.023333333333333872, 28.5 0.14000000000000057 M28.5 0 C34.301158177421016 -0.08937185169721411, 42.14161004925838 0.6736117721119058, 46.81944687606637 1.6376888981671538 C51.49728370287436 2.601766024222402, 55.50664143888291 4.307410906026013, 56.56702096084793 5.784462756331488 C57.627400482812945 7.261514606636962, 56.23496515386756 9.201102401805022, 53.1817240078565 10.5 C50.12848286184544 11.798897598194978, 43.98579043355457 13.064873621251133, 38.24757408478156 13.577848345501359 C32.50935773600855 14.090823069751584, 24.490642263991454 14.090823069751584, 18.752425915218442 13.577848345501359 C13.01420956644543 13.064873621251133, 6.871517138154559 11.798897598194978, 3.818275992143498 10.5 C0.7650348461324366 9.201102401805022, -0.6274004828129478 7.261514606636961, 0.43297903915207314 5.784462756331487 C1.493358561117094 4.307410906026012, 5.5027162971256365 2.6017660242224023, 10.180553123933624 1.6376888981671547 C14.85838995074161 0.6736117721119069, 25.446758853988932 0.24961481636119234, 28.499999999999996 0 C31.55324114601106 -0.24961481636119234, 28.5 0.023333333333333872, 28.5 0.14000000000000057" stroke="#c92a2a" stroke-width="1" fill="none"></path></g><g transform="translate(594.3861196319019 179.25546695525048) rotate(0 28.5 7)"><path d="M28.5 0 C34.301158177421016 -0.08937185169721411, 42.14161004925838 0.6736117721119058, 46.81944687606637 1.6376888981671538 C51.49728370287436 2.601766024222402, 55.50664143888291 4.307410906026013, 56.56702096084793 5.784462756331488 C57.627400482812945 7.261514606636962, 56.23496515386756 9.201102401805022, 53.1817240078565 10.5 C50.12848286184544 11.798897598194978, 43.98579043355457 13.064873621251133, 38.24757408478156 13.577848345501359 C32.50935773600855 14.090823069751584, 24.490642263991454 14.090823069751584, 18.752425915218442 13.577848345501359 C13.01420956644543 13.064873621251133, 6.871517138154559 11.798897598194978, 3.818275992143498 10.5 C0.7650348461324366 9.201102401805022, -0.6274004828129478 7.261514606636961, 0.43297903915207314 5.784462756331487 C1.493358561117094 4.307410906026012, 5.5027162971256365 2.6017660242224023, 10.180553123933624 1.6376888981671547 C14.85838995074161 0.6736117721119069, 25.446758853988932 0.24961481636119234, 28.499999999999996 0 C31.55324114601106 -0.24961481636119234, 28.5 0.023333333333333872, 28.5 0.14000000000000057 M28.5 0 C34.301158177421016 -0.08937185169721411, 42.14161004925838 0.6736117721119058, 46.81944687606637 1.6376888981671538 C51.49728370287436 2.601766024222402, 55.50664143888291 4.307410906026013, 56.56702096084793 5.784462756331488 C57.627400482812945 7.261514606636962, 56.23496515386756 9.201102401805022, 53.1817240078565 10.5 C50.12848286184544 11.798897598194978, 43.98579043355457 13.064873621251133, 38.24757408478156 13.577848345501359 C32.50935773600855 14.090823069751584, 24.490642263991454 14.090823069751584, 18.752425915218442 13.577848345501359 C13.01420956644543 13.064873621251133, 6.871517138154559 11.798897598194978, 3.818275992143498 10.5 C0.7650348461324366 9.201102401805022, -0.6274004828129478 7.261514606636961, 0.43297903915207314 5.784462756331487 C1.493358561117094 4.307410906026012, 5.5027162971256365 2.6017660242224023, 10.180553123933624 1.6376888981671547 C14.85838995074161 0.6736117721119069, 25.446758853988932 0.24961481636119234, 28.499999999999996 0 C31.55324114601106 -0.24961481636119234, 28.5 0.023333333333333872, 28.5 0.14000000000000057" stroke="#c92a2a" stroke-width="1" fill="none"></path></g><g transform="translate(593.6361196319019 155.75546695525048) rotate(0 28.5 7)"><path d="M28.5 0 C34.301158177421016 -0.08937185169721411, 42.14161004925838 0.6736117721119058, 46.81944687606637 1.6376888981671538 C51.49728370287436 2.601766024222402, 55.50664143888291 4.307410906026013, 56.56702096084793 5.784462756331488 C57.627400482812945 7.261514606636962, 56.23496515386756 9.201102401805022, 53.1817240078565 10.5 C50.12848286184544 11.798897598194978, 43.98579043355457 13.064873621251133, 38.24757408478156 13.577848345501359 C32.50935773600855 14.090823069751584, 24.490642263991454 14.090823069751584, 18.752425915218442 13.577848345501359 C13.01420956644543 13.064873621251133, 6.871517138154559 11.798897598194978, 3.818275992143498 10.5 C0.7650348461324366 9.201102401805022, -0.6274004828129478 7.261514606636961, 0.43297903915207314 5.784462756331487 C1.493358561117094 4.307410906026012, 5.5027162971256365 2.6017660242224023, 10.180553123933624 1.6376888981671547 C14.85838995074161 0.6736117721119069, 25.446758853988932 0.24961481636119234, 28.499999999999996 0 C31.55324114601106 -0.24961481636119234, 28.5 0.023333333333333872, 28.5 0.14000000000000057 M28.5 0 C34.301158177421016 -0.08937185169721411, 42.14161004925838 0.6736117721119058, 46.81944687606637 1.6376888981671538 C51.49728370287436 2.601766024222402, 55.50664143888291 4.307410906026013, 56.56702096084793 5.784462756331488 C57.627400482812945 7.261514606636962, 56.23496515386756 9.201102401805022, 53.1817240078565 10.5 C50.12848286184544 11.798897598194978, 43.98579043355457 13.064873621251133, 38.24757408478156 13.577848345501359 C32.50935773600855 14.090823069751584, 24.490642263991454 14.090823069751584, 18.752425915218442 13.577848345501359 C13.01420956644543 13.064873621251133, 6.871517138154559 11.798897598194978, 3.818275992143498 10.5 C0.7650348461324366 9.201102401805022, -0.6274004828129478 7.261514606636961, 0.43297903915207314 5.784462756331487 C1.493358561117094 4.307410906026012, 5.5027162971256365 2.6017660242224023, 10.180553123933624 1.6376888981671547 C14.85838995074161 0.6736117721119069, 25.446758853988932 0.24961481636119234, 28.499999999999996 0 C31.55324114601106 -0.24961481636119234, 28.5 0.023333333333333872, 28.5 0.14000000000000057" stroke="#c92a2a" stroke-width="1" fill="none"></path></g><g transform="translate(593.1361196319019 168.75546695525048) rotate(0 28.5 7)"><path d="M28.5 0 C34.301158177421016 -0.08937185169721411, 42.14161004925838 0.6736117721119058, 46.81944687606637 1.6376888981671538 C51.49728370287436 2.601766024222402, 55.50664143888291 4.307410906026013, 56.56702096084793 5.784462756331488 C57.627400482812945 7.261514606636962, 56.23496515386756 9.201102401805022, 53.1817240078565 10.5 C50.12848286184544 11.798897598194978, 43.98579043355457 13.064873621251133, 38.24757408478156 13.577848345501359 C32.50935773600855 14.090823069751584, 24.490642263991454 14.090823069751584, 18.752425915218442 13.577848345501359 C13.01420956644543 13.064873621251133, 6.871517138154559 11.798897598194978, 3.818275992143498 10.5 C0.7650348461324366 9.201102401805022, -0.6274004828129478 7.261514606636961, 0.43297903915207314 5.784462756331487 C1.493358561117094 4.307410906026012, 5.5027162971256365 2.6017660242224023, 10.180553123933624 1.6376888981671547 C14.85838995074161 0.6736117721119069, 25.446758853988932 0.24961481636119234, 28.499999999999996 0 C31.55324114601106 -0.24961481636119234, 28.5 0.023333333333333872, 28.5 0.14000000000000057 M28.5 0 C34.301158177421016 -0.08937185169721411, 42.14161004925838 0.6736117721119058, 46.81944687606637 1.6376888981671538 C51.49728370287436 2.601766024222402, 55.50664143888291 4.307410906026013, 56.56702096084793 5.784462756331488 C57.627400482812945 7.261514606636962, 56.23496515386756 9.201102401805022, 53.1817240078565 10.5 C50.12848286184544 11.798897598194978, 43.98579043355457 13.064873621251133, 38.24757408478156 13.577848345501359 C32.50935773600855 14.090823069751584, 24.490642263991454 14.090823069751584, 18.752425915218442 13.577848345501359 C13.01420956644543 13.064873621251133, 6.871517138154559 11.798897598194978, 3.818275992143498 10.5 C0.7650348461324366 9.201102401805022, -0.6274004828129478 7.261514606636961, 0.43297903915207314 5.784462756331487 C1.493358561117094 4.307410906026012, 5.5027162971256365 2.6017660242224023, 10.180553123933624 1.6376888981671547 C14.85838995074161 0.6736117721119069, 25.446758853988932 0.24961481636119234, 28.499999999999996 0 C31.55324114601106 -0.24961481636119234, 28.5 0.023333333333333872, 28.5 0.14000000000000057" stroke="#c92a2a" stroke-width="1" fill="none"></path></g><g transform="translate(593.1361196319019 162.75546695525048) rotate(0 28.5 7)"><path d="M28.5 0 C34.301158177421016 -0.08937185169721411, 42.14161004925838 0.6736117721119058, 46.81944687606637 1.6376888981671538 C51.49728370287436 2.601766024222402, 55.50664143888291 4.307410906026013, 56.56702096084793 5.784462756331488 C57.627400482812945 7.261514606636962, 56.23496515386756 9.201102401805022, 53.1817240078565 10.5 C50.12848286184544 11.798897598194978, 43.98579043355457 13.064873621251133, 38.24757408478156 13.577848345501359 C32.50935773600855 14.090823069751584, 24.490642263991454 14.090823069751584, 18.752425915218442 13.577848345501359 C13.01420956644543 13.064873621251133, 6.871517138154559 11.798897598194978, 3.818275992143498 10.5 C0.7650348461324366 9.201102401805022, -0.6274004828129478 7.261514606636961, 0.43297903915207314 5.784462756331487 C1.493358561117094 4.307410906026012, 5.5027162971256365 2.6017660242224023, 10.180553123933624 1.6376888981671547 C14.85838995074161 0.6736117721119069, 25.446758853988932 0.24961481636119234, 28.499999999999996 0 C31.55324114601106 -0.24961481636119234, 28.5 0.023333333333333872, 28.5 0.14000000000000057 M28.5 0 C34.301158177421016 -0.08937185169721411, 42.14161004925838 0.6736117721119058, 46.81944687606637 1.6376888981671538 C51.49728370287436 2.601766024222402, 55.50664143888291 4.307410906026013, 56.56702096084793 5.784462756331488 C57.627400482812945 7.261514606636962, 56.23496515386756 9.201102401805022, 53.1817240078565 10.5 C50.12848286184544 11.798897598194978, 43.98579043355457 13.064873621251133, 38.24757408478156 13.577848345501359 C32.50935773600855 14.090823069751584, 24.490642263991454 14.090823069751584, 18.752425915218442 13.577848345501359 C13.01420956644543 13.064873621251133, 6.871517138154559 11.798897598194978, 3.818275992143498 10.5 C0.7650348461324366 9.201102401805022, -0.6274004828129478 7.261514606636961, 0.43297903915207314 5.784462756331487 C1.493358561117094 4.307410906026012, 5.5027162971256365 2.6017660242224023, 10.180553123933624 1.6376888981671547 C14.85838995074161 0.6736117721119069, 25.446758853988932 0.24961481636119234, 28.499999999999996 0 C31.55324114601106 -0.24961481636119234, 28.5 0.023333333333333872, 28.5 0.14000000000000057" stroke="#c92a2a" stroke-width="1" fill="none"></path></g><g transform="translate(554.5111196319019 204.50546695525048) rotate(0 89 9.5)"><text x="0" y="15" font-family="Cascadia, Segoe UI Emoji" font-size="16px" fill="#495057" text-anchor="start" style="white-space: pre;" direction="ltr">interactive brokers</text></g><g><g transform="translate(499.3236196319019 216.13046695525048) rotate(0 39.47129746883644 -12.65960465474987)"><path d="M1.1815104179084301 -0.9106171421706677 C14.464026841769618 -5.060320938875278, 65.45190100794038 -20.586445710311335, 78.59993027970195 -24.965468507260084 M0.3426646579708903 1.2257049128506332 C13.52798091554704 -3.233225628923004, 64.18803016815646 -21.925752920002363, 77.44184821291827 -26.544914222350343" stroke="#c92a2a" stroke-width="1" fill="none"></path></g><g transform="translate(499.3236196319019 216.13046695525048) rotate(0 39.47129746883644 -12.65960465474987)"><path d="M52.86718751111255 -8.018564370947427 C60.932675607707225 -9.80228579358737, 62.04668481708171 -15.019157869468438, 75.81368780701422 -27.475867616971954 M54.120606893610216 -8.211551826002545 C63.466937624827516 -14.66989312450267, 71.82682783780345 -23.693051070722262, 77.545828510141 -27.31198698378168" stroke="#c92a2a" stroke-width="1" fill="none"></path></g><g transform="translate(499.3236196319019 216.13046695525048) rotate(0 39.47129746883644 -12.65960465474987)"><path d="M45.92438480386534 -27.32963614218996 C55.42826405508581 -25.150800392638175, 57.991485977928015 -26.33675701526006, 75.81368780701422 -27.475867616971954 M47.177804186363005 -27.522623597245076 C59.392462236217995 -26.367363032262183, 70.51166115391872 -27.715636543074563, 77.545828510141 -27.31198698378168" stroke="#c92a2a" stroke-width="1" fill="none"></path></g></g></svg>